<?xml version="1.0" encoding="utf-8" ?>
<svg baseProfile="full" height="200mm" version="1.1" viewBox="0,0,200,200" width="200mm" xmlns="http://www.w3.org/2000/svg" xmlns:ev="http://www.w3.org/2001/xml-events" xmlns:xlink="http://www.w3.org/1999/xlink"><defs /><rect fill="#1a1a1a" height="200" width="200" x="0" y="0" /><text alignment-baseline="middle" fill="#e1ed5e" style="dominant-baseline: central; font-size:9.0px; font-family:Arial;" text-anchor="middle" x="100.0" y="100.0">2020</text><line stroke="#e1ed5e" stroke-width="0.3" x1="100.0" x2="100.0" y1="15.0" y2="10.0" /><path d="M 100.0 14.0 a86.0,86.0 0 0,1 42.35913384403234,11.155469271406648" fill="none" id="id61" stroke="none" /><text fill="#e1ed5e" style="font-size:6.75px; font-family:Arial;" text-anchor="middle"><textPath startOffset="22.145653131862478" xlink:href="#id61">January</textPath></text><line stroke="#e1ed5e" stroke-width="0.3" x1="143.13028292997686" x2="145.6673583964461" y1="26.7553504044142" y2="22.446841604673864" /><path d="M 143.63769802327073 25.89364864446614 a86.0,86.0 0 0,1 29.32050498858742,28.57503671076992" fill="none" id="id62" stroke="none" /><text fill="#e1ed5e" style="font-size:6.75px; font-family:Arial;" text-anchor="middle"><textPath startOffset="20.669276256404974" xlink:href="#id62">February</textPath></text><line stroke="#e1ed5e" stroke-width="0.3" x1="172.87174338648825" x2="177.1583165268699" y1="56.24261187166439" y2="53.66864786411523" /><path d="M 173.72905801456457 55.72781907015455 a86.0,86.0 0 0,1 12.242430191666344,42.057860355516425" fill="none" id="id63" stroke="none" /><text fill="#e1ed5e" style="font-size:6.75px; font-family:Arial;" text-anchor="middle"><textPath startOffset="22.145653131862474" xlink:href="#id63">March</textPath></text><line stroke="#e1ed5e" stroke-width="0.3" x1="184.99686870605535" x2="189.99668451229388" y1="99.2704041080226" y2="99.22748670261217" /><path d="M 185.99683186730306 99.26182062694052 a86.0,86.0 0 0,1 -10.086455211305974,41.156179273409016" fill="none" id="id64" stroke="none" /><text fill="#e1ed5e" style="font-size:6.75px; font-family:Arial;" text-anchor="middle"><textPath startOffset="21.40746469413373" xlink:href="#id64">April</textPath></text><path d="M 120.65975698304385 103.76489593502545 l 15.281390317266046 2.7847783657005905 a36.533057669844226,36.533057669844226 0 0,0 -0.11772987937085994,0.6160124767800874 l -15.231334145613028 -3.046693407513992" fill="#ff0000" stroke="none" /><path d="M 119.31412917781788 108.2440532568976 l 30.69255330739086 13.10082591489049 a54.37161171084333,54.37161171084333 0 0,0 -0.37378183386549235,0.8552859845481633 l -30.463137591508403 -13.625773969214498" fill="#cdff1d" stroke="none" /><line stroke="#e1ed5e" stroke-width="0.3" x1="174.33088141563837" x2="178.70328620479359" y1="141.23008692659167" y2="143.65538615756765" /><path d="M 175.20536237346943 141.71514677278685 a86.0,86.0 0 0,1 -30.301960400862466,31.63118572779886" fill="none" id="id65" stroke="none" /><text fill="#e1ed5e" style="font-size:6.75px; font-family:Arial;" text-anchor="middle"><textPath startOffset="22.145653131862474" xlink:href="#id65">May</textPath></text><path d="M 118.36410011445183 110.18625677009912 l 26.78670379740245 14.858133053315427 a51.63154612747778,51.63154612747778 0 0,0 -0.4365733287904569,0.7713832403243368 l -26.52769710359061 -15.315773063738884" fill="#f7ff18" stroke="none" /><path d="M 117.62189284568427 111.42229804090321 l 19.303625851292768 12.512377057016893 a44.004120296669925,44.004120296669925 0 0,0 -0.41631158522574935,0.6303488010108019 l -19.085989827146292 -12.841905736366757" fill="#ff880c" stroke="none" /><path d="M 114.91283532996326 114.78537596483092 l 22.161770011413395 21.972354311892598 a52.207826006406265,52.207826006406265 0 0,0 -0.6364583471470988,0.6310185649014212 l -21.781319744136333 -22.34955288702268" fill="#eeff19" stroke="none" /><path d="M 113.31354834802062 116.24036423190432 l 20.269291515640735 24.72523990838207 a52.97157592414041,52.97157592414041 0 0,0 -0.7081775777986035,0.5704577274141188 l -19.84186316748688 -25.069545929589594" fill="#e2ff1b" stroke="none" /><path d="M 111.27062007382361 117.71928675628689 l 20.386335762976326 32.050705899766434 a58.984871126727946,58.984871126727946 0 0,0 -0.8590328309175825,0.5361000202860443 l -19.83313880326903 -32.39594171689402" fill="#89ff24" stroke="none" /><line stroke="#e1ed5e" stroke-width="0.3" x1="143.1302829299769" x2="145.6673583964461" y1="173.24464959558577" y2="177.55315839532614" /><path d="M 143.63769802327073 174.10635135553383 a86.0,86.0 0 0,1 -40.685524379131806,11.842963189579606" fill="none" id="id66" stroke="none" /><text fill="#e1ed5e" style="font-size:6.75px; font-family:Arial;" text-anchor="middle"><textPath startOffset="21.407464694133747" xlink:href="#id66">June</textPath></text><path d="M 108.73861861582097 119.09545874513695 l 12.843647984940539 28.065688756512046 a51.86490205619441,51.86490205619441 0 0,0 -0.8127640061380579,0.3635390020047529 l -12.359970575946853 -28.28203150942665" fill="#f3ff19" stroke="none" /><path d="M 106.72888874123015 119.89276391827305 l 10.147444091897905 29.9991153750443 a52.66887343881075,52.66887343881075 0 0,0 -0.858947218404851,0.28235301154928466 l -9.63097413584532 -30.168889307995602" fill="#e7ff1a" stroke="none" /><path d="M 104.29559338865022 120.5559693870025 l 6.423884929054365 30.740614858046772 a52.404644551920946,52.404644551920946 0 0,0 -0.8821536201716644,0.17645543018736282 l -5.895234823351742 -30.846359684897" fill="#ebff1a" stroke="none" /><line stroke="#e1ed5e" stroke-width="0.3" x1="101.45913802915013" x2="101.54496967792366" y1="184.9874750549273" y2="189.98673829345242" /><path d="M 101.47630435890484 185.9873277026323 a86.0,86.0 0 0,1 -42.54439059252881,-10.42667462771756" fill="none" id="id67" stroke="none" /><text fill="#e1ed5e" style="font-size:6.75px; font-family:Arial;" text-anchor="middle"><textPath startOffset="22.145653131862474" xlink:href="#id67">July</textPath></text><path d="M 98.91894614982273 120.97215588758144 l -1.622456492897689 31.475222519479015 a52.517011243486664,52.517011243486664 0 0,0 -0.8999306240520235,-0.05413759161809106 l 2.162531469082159 -31.44273295003623" fill="#e9ff1a" stroke="none" /><path d="M 96.41257539226777 120.69131181640829 l -4.35257899496331 25.104518990091385 a46.47904663897876,46.47904663897876 0 0,0 -0.784976355262202,-0.14304884086697167 l 4.78289008377657 -25.02610197529305" fill="#ffb310" stroke="none" /><path d="M 93.95794788825049 120.11202640906438 l -9.391580674313863 31.26151761871628 a53.64175656099797,53.64175656099797 0 0,0 -0.8796210162380549,-0.272508839332016 l 9.926842323423552 -31.095692191577612" fill="#d8ff1c" stroke="none" /><path d="M 91.92203290615298 119.3841803445677 l -14.457216790602306 34.69205733247006 a58.583905588560945,58.583905588560945 0 0,0 -0.9249699167949413,-0.3948146553686426 l 15.05062178256768 -34.43876802744201" fill="#8fff24" stroke="none" /><line stroke="#e1ed5e" stroke-width="0.3" x1="58.13341422392154" x2="55.670673884152215" y1="173.97424548756322" y2="178.32567169271397" /><path d="M 57.64086615596767 174.84453072859336 a86.0,86.0 0 0,1 -31.369924170532244,-30.572349798747886" fill="none" id="id68" stroke="none" /><text fill="#e1ed5e" style="font-size:6.75px; font-family:Arial;" text-anchor="middle"><textPath startOffset="22.145653131862474" xlink:href="#id68">August</textPath></text><path d="M 89.34428304082925 118.09573695890944 l -16.081016858459805 27.309082271750096 a52.69203492562893,52.69203492562893 0 0,0 -0.7754943802782811,-0.46566209359376187 l 16.547443995295513 -27.029006177620413" fill="#e6ff1a" stroke="none" /><path d="M 87.54013794807813 116.9041958592261 l -19.31442434520537 26.203726066870566 a53.55276098235377,53.55276098235377 0 0,0 -0.735322788801796,-0.5517999292409247 l 19.761400122917937 -25.868307110365624" fill="#d9ff1c" stroke="none" /><path d="M 83.8745106332314 113.45245675266167 l -24.888562187451367 20.762923769160235 a53.41202757006406,53.41202757006406 0 0,0 -0.5813089900977207,-0.7091024483995739 l 25.241317996787718 -20.332619039062166" fill="#dbff1b" stroke="none" /><path d="M 82.37810715431573 111.42229804090323 l -32.15436131668912 20.842068527505617 a59.31833467400996,59.31833467400996 0 0,0 -0.5465261105540695,-0.8592298213651272 l 32.50740511886908 -20.287025031461816" fill="#85ff25" stroke="none" /><line stroke="#e1ed5e" stroke-width="0.3" x1="26.387840678322732" x2="22.057713659400548" y1="142.50000000000003" y2="145.00000000000006" /><path d="M 25.521815274538298 143.00000000000003 a86.0,86.0 0 0,1 -11.493303480769221,-40.785679425670985" fill="none" id="id69" stroke="none" /><text fill="#e1ed5e" style="font-size:6.75px; font-family:Arial;" text-anchor="middle"><textPath startOffset="21.40746469413373" xlink:href="#id69">September</textPath></text><path d="M 80.9802524753101 108.90220220490707 l -35.482495510699316 16.607599515236096 a60.17677691343773,60.17677691343773 0 0,0 -0.42987863771272705,-0.9393624041444588 l 35.7623586132671 -15.996048128876948" fill="#79ff26" stroke="none" /><path d="M 80.05021161711548 106.5578916946017 l -59.84936514865356 19.673675083805072 a84.0,84.0 0 0,0 -0.4385411368909713,-1.3737238652344332 l 60.17827100132179 -18.643382184879247" fill="#4dd2ff" stroke="none" /><path d="M 79.48165901384964 104.47187691870673 l -30.14853096919165 6.570732003383969 a51.85625444963472,51.85625444963472 0 0,0 -0.18209518624715137,-0.8713913853920903 l 30.25688386626317 -6.05222416670647" fill="#f3ff19" stroke="none" /><line stroke="#e1ed5e" stroke-width="0.3" x1="15.003131293944662" x2="10.003315487706104" y1="100.72959589197737" y2="100.7725132973878" /><path d="M 14.003168132696942 100.73817937305945 a86.0,86.0 0 0,1 10.791469493833604,-42.453326145846276" fill="none" id="id70" stroke="none" /><text fill="#e1ed5e" style="font-size:6.75px; font-family:Arial;" text-anchor="middle"><textPath startOffset="22.145653131862435" xlink:href="#id70">October</textPath></text><path d="M 81.63589988554816 89.8137432299009 l -20.761339725053023 -11.51596517186388 a44.74132854367351,44.74132854367351 0 0,0 0.37831272161778473,-0.6684423298737701 l 20.56059363841387 11.870664271836755" fill="#ff950d" stroke="none" /><line stroke="#e1ed5e" stroke-width="0.3" x1="26.387840678322718" x2="22.05771365940052" y1="57.5" y2="55.0" /><path d="M 25.521815274538284 57.0 a86.0,86.0 0 0,1 29.574782752854787,-30.346332500585742" fill="none" id="id71" stroke="none" /><text fill="#e1ed5e" style="font-size:6.75px; font-family:Arial;" text-anchor="middle"><textPath startOffset="21.40746469413373" xlink:href="#id71">November</textPath></text><path d="M 82.98947788004972 87.6856937992154 l -26.310187480850274 -19.046546752333708 a53.48071594756378,53.48071594756378 0 0,0 0.5447341491616833,-0.7390364925603377 l 25.97935131210477 19.49538955416291" fill="#daff1b" stroke="none" /><path d="M 84.58840730492382 85.73525988315684 l -24.22760408308677 -22.42470864217793 a54.012790813461564,54.012790813461564 0 0,0 0.6356641025319107,-0.6750532486296973 l 23.83908414681859 22.837303350752137" fill="#d2ff1c" stroke="none" /><path d="M 86.68645165197937 83.75963576809568 l -21.122813776383175 -25.76639828570948 a54.31787121725479,54.31787121725479 0 0,0 0.7261762142946316,-0.5849561549187012 l 20.677386791733298 26.125202734421578" fill="#ceff1d" stroke="none" /><path d="M 88.4268655584334 82.4767994020092 l -26.583477393416885 -40.25077296984557 a69.23697746538808,69.23697746538808 0 0,0 0.9973895458274483,-0.6464958534867218 l 25.88860221533241 40.7011826650362" fill="#35ff66" stroke="none" /><line stroke="#e1ed5e" stroke-width="0.3" x1="56.869717070023135" x2="54.33264160355391" y1="26.7553504044142" y2="22.446841604673864" /><path d="M 56.362301976729285 25.89364864446614 a86.0,86.0 0 0,1 42.16139366436587,-11.88097634709845" fill="none" id="id72" stroke="none" /><text fill="#e1ed5e" style="font-size:6.75px; font-family:Arial;" text-anchor="middle"><textPath startOffset="22.145653131862474" xlink:href="#id72">December</textPath></text><path d="M 90.93487009805054 81.0573650232925 l -14.756491664232982 -30.835392118570745 a55.18443290947785,55.18443290947785 0 0,0 0.8580161982640108,-0.4015949045651883 l 14.224986752097447 31.084163254706475" fill="#c0ff1e" stroke="none" /><path d="M 92.93061703081487 80.22567764915836 l -12.33142289176909 -34.49318453524063 a57.631185756371714,57.631185756371714 0 0,0 0.9344326714403237,-0.32504418923407896 l 11.737484448283764 34.699787157043296" fill="#9dff22" stroke="none" /><path d="M 95.70440661134978 79.44403061299748 l -6.799285974101829 -32.53704475530701 a54.239879229119786,54.239879229119786 0 0,0 0.9130470443747247,-0.18263498024877786 l 6.239742444196128 32.64896913221865" fill="#cfff1d" stroke="none" /><path d="M 98.1996594967304 79.07731436759882 l -2.8115493885952585 -32.67446568619445 a53.795205714293196,53.795205714293196 0 0,0 0.9207459460077319,-0.07127155942533746 l 2.250234447812309 32.717915012614846" fill="#d5ff1c" stroke="none" /></svg>