<?xml version="1.0" encoding="utf-8" ?>
<svg baseProfile="full" height="200mm" version="1.1" viewBox="0,0,200,200" width="200mm" xmlns="http://www.w3.org/2000/svg" xmlns:ev="http://www.w3.org/2001/xml-events" xmlns:xlink="http://www.w3.org/1999/xlink"><defs /><rect fill="#1a1a1a" height="200" width="200" x="0" y="0" /><text alignment-baseline="middle" fill="#e1ed5e" style="dominant-baseline: central; font-size:9.0px; font-family:Arial;" text-anchor="middle" x="100.0" y="100.0">2015</text><line stroke="#e1ed5e" stroke-width="0.3" x1="100.0" x2="100.0" y1="15.0" y2="10.0" /><path d="M 100.0 14.0 a86.0,86.0 0 0,1 42.46469731375804,11.215312516191453" fill="none" id="id1" stroke="none" /><text fill="#e1ed5e" style="font-size:6.75px; font-family:Arial;" text-anchor="middle"><textPath startOffset="22.20632615414155" xlink:href="#id1">January</textPath></text><line stroke="#e1ed5e" stroke-width="0.3" x1="143.23703022742887" x2="145.7803849466894" y1="26.818313649435467" y2="22.513508569990506" /><path d="M 143.74570117128098 25.957352633546478 a86.0,86.0 0 0,1 28.547481713284135,27.462654790039114" fill="none" id="id2" stroke="none" /><text fill="#e1ed5e" style="font-size:6.75px; font-family:Arial;" text-anchor="middle"><textPath startOffset="19.985693538727396" xlink:href="#id2">February</textPath></text><line stroke="#e1ed5e" stroke-width="0.3" x1="172.23445277983987" x2="176.4835382374775" y1="55.19839476539836" y2="52.563006222186495" /><path d="M 173.08426987136738 54.67131705675599 a86.0,86.0 0 0,1 12.851231095245387,41.99856678651699" fill="none" id="id3" stroke="none" /><text fill="#e1ed5e" style="font-size:6.75px; font-family:Arial;" text-anchor="middle"><textPath startOffset="22.20632615414155" xlink:href="#id3">March</textPath></text><line stroke="#e1ed5e" stroke-width="0.3" x1="184.98032266829074" x2="189.97916517819016" y1="98.17113171792111" y2="98.06355123074" /><path d="M 185.9800911702706 98.14961562048488 a86.0,86.0 0 0,1 -9.607161424134198,41.387399972396054" fill="none" id="id4" stroke="none" /><text fill="#e1ed5e" style="font-size:6.75px; font-family:Arial;" text-anchor="middle"><textPath startOffset="21.466115282336823" xlink:href="#id4">April</textPath></text><line stroke="#e1ed5e" stroke-width="0.3" x1="174.80103733775053" x2="179.2010983576182" y1="140.37084112569926" y2="142.7455964860345" /><path d="M 175.68104954172406 140.8457921977663 a86.0,86.0 0 0,1 -30.038265399797805,32.042727171017184" fill="none" id="id5" stroke="none" /><text fill="#e1ed5e" style="font-size:6.75px; font-family:Arial;" text-anchor="middle"><textPath startOffset="22.206326154141568" xlink:href="#id5">May</textPath></text><path d="M 118.30583269289576 110.29060199501023 l 33.068745925763814 18.589556045064075 a58.935650133552464,58.935650133552464 0 0,0 -0.5047361443800551,0.8800500120628441 l -32.74385778523138 -19.156025902985235" fill="#ff0000" stroke="none" /><path d="M 117.55443506779139 111.5257021239791 l 34.464107577059245 22.628072983719928 a62.22868416575611,62.22868416575611 0 0,0 -0.5956082034140006,0.890353450921682 l -34.06949626823452 -23.217963348847416" fill="#ff730a" stroke="none" /><path d="M 117.14729908036423 112.12312394758627 l 36.19275023353904 25.588239583904517 a65.32463394626782,65.32463394626782 0 0,0 -0.6570420354818303,0.9125739207638611 l -35.74692840568161 -26.20744711011951" fill="#ffd714" stroke="none" /><path d="M 116.498646956653 112.99209946851258 l 34.46567549907339 27.140497369869014 a64.86900255409616,64.86900255409616 0 0,0 -0.6983675971594796,0.8713209563834247 l -33.99338998985906 -27.729746159830686" fill="#ffc912" stroke="none" /><path d="M 115.80600337817218 113.82643327865902 l 36.29715448051806 31.75123860362593 a69.22472992404393,69.22472992404393 0 0,0 -0.7922643439394276,0.8901173891525909 l -35.7452312869303 -32.371330162519385" fill="#b4ff20" stroke="none" /><path d="M 115.07121518719521 114.62390073753431 l 33.948784966222 32.94118326488584 a68.30371608630315,68.30371608630315 0 0,0 -0.8260175735077003,0.8367514409355847 l -33.37672676765877 -33.520675199802085" fill="#ceff1d" stroke="none" /><path d="M 114.55890576462653 115.13401014063108 l 33.48405701093927 34.80674073626187 a69.29794275735958,69.29794275735958 0 0,0 -0.8667660148950205,0.8195813678900853 l -32.87995516165344 -35.377956740897886" fill="#b2ff20" stroke="none" /><path d="M 114.0293411484842 115.62618273729858 l 28.294960894775205 31.515537672576 a63.35367666246243,63.35367666246243 0 0,0 -0.8177380252782805,0.721558730538192 l -27.748280516590338 -31.99791954488648" fill="#ff980e" stroke="none" /><path d="M 113.20401910651253 116.32954008644616 l 27.662822808344362 34.21088460333392 a64.99564059163689,64.99564059163689 0 0,0 -0.876025194071372,0.6959673955509973 l -27.06984012155564 -34.68198591289005" fill="#ffcd13" stroke="none" /><path d="M 111.45004920935366 117.60387380957326 l 21.734012863190355 33.41494982455557 a60.86133699356922,60.86133699356922 0 0,0 -0.8831217587473761,0.5636500898924267 l -21.155609302396048 -33.7841143432718" fill="#ff4406" stroke="none" /><line stroke="#e1ed5e" stroke-width="0.3" x1="143.8653032363475" x2="146.44561519142675" y1="172.8068346515853" y2="177.08958963109032" /><path d="M 144.38136562736335 173.6633856474863 a86.0,86.0 0 0,1 -40.68145358897372,12.25698825130547" fill="none" id="id6" stroke="none" /><text fill="#e1ed5e" style="font-size:6.75px; font-family:Arial;" text-anchor="middle"><textPath startOffset="21.466115282336833" xlink:href="#id6">June</textPath></text><path d="M 103.06178313531737 120.77559828337769 l 6.497250681310354 44.086816124981304 a65.56300733179594,65.56300733179594 0 0,0 -1.1179161143487761,0.15493298697390748 l -5.737405975774747 -44.19212367744781" fill="#ffde14" stroke="none" /><path d="M 101.98527174616119 120.90594882070398 l 4.872040738994664 51.305134694410405 a72.5359449993305,72.5359449993305 0 0,0 -1.2440110837855172,0.10733851083466385 l -3.9881853374676046 -51.38139745752373" fill="#5cff2a" stroke="none" /><line stroke="#e1ed5e" stroke-width="0.3" x1="102.19456741930631" x2="102.32365962044197" y1="184.97166512339345" y2="189.96999836594603" /><path d="M 102.22038585953345 185.97133177190398 a86.0,86.0 0 0,1 -42.740103519485714,-10.115201625700543" fill="none" id="id7" stroke="none" /><text fill="#e1ed5e" style="font-size:6.75px; font-family:Arial;" text-anchor="middle"><textPath startOffset="22.20632615414155" xlink:href="#id7">July</textPath></text><path d="M 99.45781275523022 120.99299961872073 l -1.312750615555267 50.828516232485065 a71.84546564419131,71.84546564419131 0 0,0 -1.2360145029383307,-0.04257083862770601 l 2.187485470168241 -50.79838859543127" fill="#6eff28" stroke="none" /><path d="M 98.73552117531835 120.96189622390904 l -3.500486698865275 58.02931411940531 a79.134797705828,79.134797705828 0 0,0 -1.358997855759413,-0.09372444882442008 l 4.498847315403618 -57.9604613260646" fill="#3effb6" stroke="none" /><path d="M 94.11515582081647 120.15858648285463 l -12.69916296682959 43.50109656806855 a66.31681964439386,66.31681964439386 0 0,0 -1.0930433759265443,-0.32932500279513244 l 13.44608131719638 -43.27605619616769" fill="#fff517" stroke="none" /><line stroke="#e1ed5e" stroke-width="0.3" x1="58.666819895761336" x2="56.23545636021788" y1="174.27360380694188" y2="178.64263932499728" /><path d="M 58.180547188652646 175.14741091055294 a86.0,86.0 0 0,1 -31.652253787137756,-30.449443065178592" fill="none" id="id8" stroke="none" /><text fill="#e1ed5e" style="font-size:6.75px; font-family:Arial;" text-anchor="middle"><textPath startOffset="22.20632615414155" xlink:href="#id8">August</textPath></text><path d="M 89.4739219176387 118.17145234162733 l -21.529652064840022 37.16721872732834 a63.952625833098224,63.952625833098224 0 0,0 -0.9478148519695452,-0.5599857211311304 l 22.166234787837947 -36.79111443390346" fill="#ffab0f" stroke="none" /><path d="M 87.36589467227662 116.77436683061367 l -32.079019941052486 42.59148029081298 a74.32070623820688,74.32070623820688 0 0,0 -1.01526073799126,-0.7784586409529006 l 32.807409407537236 -42.032982308032715" fill="#30ff2f" stroke="none" /><line stroke="#e1ed5e" stroke-width="0.3" x1="26.63291911575756" x2="22.317208475507996" y1="142.92168965132927" y2="145.44649492493687" /><path d="M 25.769776987707644 143.4266507060508 a86.0,86.0 0 0,1 -11.730757126820373,-40.83630448921669" fill="none" id="id9" stroke="none" /><text fill="#e1ed5e" style="font-size:6.75px; font-family:Arial;" text-anchor="middle"><textPath startOffset="21.46611528233685" xlink:href="#id9">September</textPath></text><path d="M 80.73074385275274 108.34839909993369 l -44.006141315604424 19.065646735057253 a68.95872557642609,68.95872557642609 0 0,0 -0.4625128016984974,-1.093243639142322 l 44.32780509849523 -18.305328570248772" fill="#bcff1f" stroke="none" /><path d="M 79.1416061653843 102.43462659150553 l -62.5751815038471 7.303879774516597 a84.0,84.0 0 0,0 -0.15527079399579247,-1.4376147124608716 l 62.69163459934394 -6.225668740170943" fill="#4dd2ff" stroke="none" /><line stroke="#e1ed5e" stroke-width="0.3" x1="15.007084014347285" x2="10.007500721073583" y1="101.09737516637583" y2="101.16192664675087" /><path d="M 14.007167355692545 101.11028546245083 a86.0,86.0 0 0,1 10.666146001902526,-42.60595125391555" fill="none" id="id10" stroke="none" /><text fill="#e1ed5e" style="font-size:6.75px; font-family:Arial;" text-anchor="middle"><textPath startOffset="22.20632615414155" xlink:href="#id10">October</textPath></text><path d="M 79.3925641242962 95.95851677861259 l -45.297277079914714 -8.883598444620153 a67.16017365846693,67.16017365846693 0 0,0 0.23224852845471922,-1.132526306131264 l 45.137649255545 9.662000406914819" fill="#f0ff19" stroke="none" /><path d="M 80.95270993114464 91.15688171328213 l -42.18963846322279 -19.587456381219578 a67.51487978210443,67.51487978210443 0 0,0 0.49845851923688017,-1.0498807642839987 l 41.84622175014416 20.310779561144106" fill="#e5ff1a" stroke="none" /><line stroke="#e1ed5e" stroke-width="0.3" x1="26.266209847984243" x2="21.928928074336255" y1="57.71137044288968" y2="55.22380399835378" /><path d="M 25.398753493254645 57.2138571539825 a86.0,86.0 0 0,1 29.58750427330803,-30.4925239686951" fill="none" id="id11" stroke="none" /><text fill="#e1ed5e" style="font-size:6.75px; font-family:Arial;" text-anchor="middle"><textPath startOffset="21.46611528233685" xlink:href="#id11">November</textPath></text><line stroke="#e1ed5e" stroke-width="0.3" x1="56.76296977257108" x2="54.21961505331056" y1="26.818313649435495" y2="22.513508569990535" /><path d="M 56.25429882871898 25.957352633546506 a86.0,86.0 0 0,1 42.26535254187918,-11.944610805530505" fill="none" id="id12" stroke="none" /><text fill="#e1ed5e" style="font-size:6.75px; font-family:Arial;" text-anchor="middle"><textPath startOffset="22.20632615414155" xlink:href="#id12">December</textPath></text><path d="M 89.63071344664047 81.73862282372117 l -23.288093943702723 -41.012722045451326 a68.16331931817535,68.16331931817535 0 0,0 1.025292884833413,-0.570574380348745 l 22.578676969797264 41.40751182336025" fill="#d2ff1c" stroke="none" /><path d="M 92.23578459929587 80.48803036053334 l -17.17828608106616 -43.17013106584318 a67.46239047794495,67.46239047794495 0 0,0 1.082664824782519,-0.42005713180837567 l 16.432638091283966 43.459430901542106" fill="#e7ff1a" stroke="none" /><path d="M 93.59665428221793 80.00007090966166 l -14.456081017028831 -45.15148923817678 a68.40923178871489,68.40923178871489 0 0,0 1.1245651169088848,-0.3494078559260698 l 13.676730527409218 45.39363722898538" fill="#cbff1d" stroke="none" /><path d="M 94.28887869178378 79.79150937346287 l -12.896366106863248 -45.63308666058364 a68.42040549103928,68.42040549103928 0 0,0 1.1361114197568707,-0.31054216787706895 l 12.108956797882655 45.84831536928701" fill="#cbff1d" stroke="none" /><path d="M 98.19473922651362 79.07773832637324 l -3.9570289120631075 -45.86040729639525 a67.03080528518012,67.03080528518012 0 0,0 1.150407611415335,-0.08929377157853127 l 3.1670311112854383 45.921726330162244" fill="#f3ff19" stroke="none" /></svg>